<?xml version="1.0" encoding="UTF-8"?>

<!DOCTYPE svg PUBLIC '-//W3C//DTD SVG 1.0//EN' 'http://www.w3.org/TR/2001/REC-SVG-20010904/DTD/svg10.dtd'>
<svg xmlns:xlink="http://www.w3.org/1999/xlink" style="fill-opacity:1; color-rendering:auto; color-interpolation:auto; text-rendering:auto; stroke:black; stroke-linecap:square; stroke-miterlimit:10; shape-rendering:auto; stroke-opacity:1; fill:black; stroke-dasharray:none; font-weight:normal; stroke-width:1; font-family:&apos;Dialog&apos;; font-style:normal; stroke-linejoin:miter; font-size:12; stroke-dashoffset:0; image-rendering:auto;" xmlns="http://www.w3.org/2000/svg">
  <!--Generated by the Batik Graphics2D SVG Generator-->
  <defs id="genericDefs" />
  <g>
    <g style="fill:silver; stroke:silver;">
      <rect x="200" y="400" width="200" style="stroke:none;" height="200" />
      <rect x="500" y="400" width="100" style="stroke:none;" height="200" />
      <polygon style="stroke:none;" points=" 200 400 600 400 400 200" />
    </g>
    <g style="stroke-linecap:butt; fill:blue; stroke-linejoin:bevel; stroke-dasharray:1000; stroke:blue; stroke-width:3; stroke-miterlimit:0;">
      <line x1="200" x2="200" y1="400" style="fill:none;" y2="600" />
      <line x1="400" x2="400" y1="400" style="fill:none;" y2="600" />
      <line x1="500" x2="500" y1="400" style="fill:none;" y2="600" />
      <line x1="600" x2="600" y1="400" style="fill:none;" y2="600" />
      <line x1="200" x2="600" y1="400" style="fill:none;" y2="400" />
      <line x1="200" x2="400" y1="600" style="fill:none;" y2="600" />
      <line x1="500" x2="600" y1="600" style="fill:none;" y2="600" />
      <line x1="200" x2="400" y1="400" style="fill:none;" y2="200" />
      <line x1="400" x2="600" y1="200" style="fill:none;" y2="400" />
      <line x1="100" x2="100" y1="100" style="fill:none; stroke-dasharray:3; stroke-width:1;" y2="700" />
      <line x1="200" x2="200" y1="100" style="fill:none; stroke-dasharray:3; stroke-width:1;" y2="700" />
      <line x1="300" x2="300" y1="100" style="fill:none; stroke-dasharray:3; stroke-width:1;" y2="700" />
      <line x1="400" x2="400" y1="100" style="fill:none; stroke-dasharray:3; stroke-width:1;" y2="700" />
      <line x1="500" x2="500" y1="100" style="fill:none; stroke-dasharray:3; stroke-width:1;" y2="700" />
      <line x1="600" x2="600" y1="100" style="fill:none; stroke-dasharray:3; stroke-width:1;" y2="700" />
      <line x1="700" x2="700" y1="100" style="fill:none; stroke-dasharray:3; stroke-width:1;" y2="700" />
      <line x1="100" x2="700" y1="100" style="fill:none; stroke-dasharray:3; stroke-width:1;" y2="100" />
      <line x1="100" x2="700" y1="200" style="fill:none; stroke-dasharray:3; stroke-width:1;" y2="200" />
      <line x1="100" x2="700" y1="300" style="fill:none; stroke-dasharray:3; stroke-width:1;" y2="300" />
      <line x1="100" x2="700" y1="400" style="fill:none; stroke-dasharray:3; stroke-width:1;" y2="400" />
      <line x1="100" x2="700" y1="500" style="fill:none; stroke-dasharray:3; stroke-width:1;" y2="500" />
      <line x1="100" x2="700" y1="600" style="fill:none; stroke-dasharray:3; stroke-width:1;" y2="600" />
      <line x1="100" x2="700" y1="700" style="fill:none; stroke-dasharray:3; stroke-width:1;" y2="700" />
    </g>
    <g style="stroke-miterlimit:0; stroke-dasharray:3; stroke-linecap:butt; stroke-linejoin:bevel;">
      <text xml:space="preserve" x="100" y="100" style="stroke:none;">100
      </text>
      <text xml:space="preserve" x="100" y="200" style="stroke:none;">200
      </text>
      <text xml:space="preserve" x="100" y="300" style="stroke:none;">300
      </text>
      <text xml:space="preserve" x="100" y="400" style="stroke:none;">400
      </text>
      <text xml:space="preserve" x="100" y="500" style="stroke:none;">500
      </text>
      <text xml:space="preserve" x="100" y="600" style="stroke:none;">600
      </text>
      <text xml:space="preserve" x="100" y="700" style="stroke:none;">700
      </text>
      <text xml:space="preserve" x="200" y="100" style="stroke:none;">200
      </text>
      <text xml:space="preserve" x="300" y="100" style="stroke:none;">300
      </text>
      <text xml:space="preserve" x="400" y="100" style="stroke:none;">400
      </text>
      <text xml:space="preserve" x="500" y="100" style="stroke:none;">500
      </text>
      <text xml:space="preserve" x="600" y="100" style="stroke:none;">600
      </text>
      <text xml:space="preserve" x="700" y="100" style="stroke:none;">700
      </text>
      <circle style="fill:silver; stroke:none;" r="5" cx="111" cy="111" />
      <circle style="fill:silver; stroke:none;" r="5" cx="222" cy="222" />
      <circle r="5" style="stroke:none;" cx="333" cy="333" />
      <circle style="fill:silver; stroke:none;" r="5" cx="444" cy="444" />
      <circle style="fill:silver; stroke:none;" r="5" cx="555" cy="555" />
      <circle style="fill:silver; stroke:none;" r="5" cx="666" cy="666" />
    </g>
  </g>
</svg>
